<svg width="503" height="194" viewBox="0 0 503 194" fill="none" xmlns="http://www.w3.org/2000/svg">
<ellipse cx="115.187" cy="47.1528" rx="23.5764" ry="24.25" fill="#306CE0"/>
<ellipse cx="55.9099" cy="47.1528" rx="23.5764" ry="24.25" fill="#306CE0"/>
<ellipse cx="85.549" cy="102.389" rx="23.5764" ry="24.25" fill="#306CE0"/>
<circle cx="56.5835" cy="157.625" r="24.25" fill="#306CE0"/>
<ellipse cx="115.187" cy="157.625" rx="23.5764" ry="24.25" fill="#306CE0"/>
<ellipse cx="146.848" cy="103.062" rx="24.25" ry="23.5764" fill="#306CE0"/>
<ellipse cx="24.25" cy="103.062" rx="24.25" ry="23.5764" fill="#306CE0"/>
<path d="M266.672 83.286C266.002 92.5613 262.568 99.8632 256.371 105.192C250.214 110.52 242.083 113.184 231.979 113.184C220.927 113.184 212.224 109.474 205.87 102.054C199.555 94.594 196.397 84.3714 196.397 71.386V66.1168C196.397 57.8282 197.858 50.5264 200.778 44.2113C203.699 37.8962 207.863 33.0612 213.27 29.7063C218.717 26.3119 225.032 24.6147 232.216 24.6147C242.162 24.6147 250.174 27.2789 256.253 32.6073C262.331 37.9357 265.844 45.4151 266.791 55.0456H249.03C248.596 49.4805 247.036 45.4546 244.353 42.968C241.708 40.442 237.662 39.1789 232.216 39.1789C226.295 39.1789 221.855 41.3103 218.895 45.573C215.974 49.7962 214.474 56.3679 214.395 65.288V71.8004C214.395 81.1152 215.796 87.9237 218.599 92.2258C221.441 96.528 225.901 98.6791 231.979 98.6791C237.465 98.6791 241.55 97.4358 244.234 94.9492C246.958 92.4232 248.517 88.5354 248.911 83.286H266.672ZM349.144 70.8531C349.144 79.3391 347.644 86.779 344.644 93.1731C341.645 99.5671 337.342 104.501 331.738 107.974C326.173 111.447 319.779 113.184 312.556 113.184C305.412 113.184 299.037 111.467 293.433 108.033C287.828 104.599 283.486 99.7053 280.408 93.3507C277.329 86.9567 275.77 79.6154 275.731 71.3268V67.0641C275.731 58.5782 277.25 51.1184 280.289 44.6849C283.368 38.2119 287.69 33.2585 293.255 29.8247C298.86 26.3514 305.254 24.6147 312.437 24.6147C319.621 24.6147 325.995 26.3514 331.56 29.8247C337.165 33.2585 341.487 38.2119 344.526 44.6849C347.605 51.1184 349.144 58.5584 349.144 67.0049V70.8531ZM331.146 66.9457C331.146 57.9072 329.528 51.0395 326.291 46.3426C323.055 41.6458 318.437 39.2974 312.437 39.2974C306.477 39.2974 301.879 41.626 298.643 46.2834C295.406 50.9014 293.768 57.6901 293.729 66.6497V70.8531C293.729 79.6548 295.347 86.483 298.584 91.3378C301.82 96.1925 306.477 98.6199 312.556 98.6199C318.516 98.6199 323.094 96.2912 326.291 91.6338C329.488 86.9369 331.106 80.1087 331.146 71.1492V66.9457ZM362.05 112V25.7988H388.574C396.152 25.7988 402.921 27.5157 408.881 30.9496C414.88 34.3439 419.557 39.1987 422.912 45.5138C426.267 51.7894 427.944 58.9334 427.944 66.9457V70.9123C427.944 78.9246 426.287 86.0489 422.971 92.285C419.695 98.5212 415.058 103.356 409.058 106.79C403.059 110.224 396.29 111.961 388.751 112H362.05ZM379.812 40.1854V97.7318H388.396C395.343 97.7318 400.651 95.4623 404.322 90.9233C407.993 86.3844 409.867 79.8916 409.946 71.4452V66.8865C409.946 58.1243 408.131 51.4934 404.5 46.9939C400.868 42.4549 395.56 40.1854 388.574 40.1854H379.812ZM492.773 74.6422H458.671V97.7318H498.693V112H440.91V25.7988H498.575V40.1854H458.671V60.7292H492.773V74.6422Z" fill="white"/>
<path d="M216.412 164.536V181.944H210.548V137.476H226.949C231.815 137.476 235.623 138.718 238.372 141.202C241.141 143.686 242.525 146.974 242.525 151.067C242.525 155.383 241.171 158.712 238.463 161.054C235.775 163.375 231.917 164.536 226.888 164.536H216.412ZM216.412 159.741H226.949C230.085 159.741 232.487 159.008 234.157 157.542C235.826 156.055 236.661 153.917 236.661 151.128C236.661 148.481 235.826 146.363 234.157 144.775C232.487 143.187 230.197 142.362 227.285 142.301H216.412V159.741ZM297.663 161.145C297.663 165.503 296.93 169.31 295.464 172.568C293.998 175.806 291.921 178.279 289.233 179.99C286.546 181.7 283.41 182.555 279.827 182.555C276.324 182.555 273.219 181.7 270.511 179.99C267.803 178.259 265.696 175.806 264.189 172.629C262.703 169.432 261.939 165.737 261.899 161.543V158.336C261.899 154.06 262.642 150.283 264.128 147.005C265.614 143.726 267.712 141.222 270.42 139.491C273.148 137.74 276.263 136.865 279.765 136.865C283.329 136.865 286.464 137.73 289.172 139.461C291.901 141.171 293.998 143.665 295.464 146.944C296.93 150.201 297.663 153.999 297.663 158.336V161.145ZM291.829 158.275C291.829 153.001 290.771 148.959 288.653 146.149C286.536 143.319 283.573 141.904 279.765 141.904C276.06 141.904 273.138 143.319 271 146.149C268.882 148.959 267.793 152.869 267.732 157.878V161.145C267.732 166.256 268.801 170.277 270.939 173.209C273.097 176.121 276.06 177.577 279.827 177.577C283.614 177.577 286.546 176.203 288.623 173.454C290.699 170.685 291.768 166.724 291.829 161.573V158.275ZM326.199 181.944H320.335V137.476H326.199V181.944ZM384.574 181.944H378.679L356.292 147.677V181.944H350.398V137.476H356.292L378.74 171.896V137.476H384.574V181.944ZM438.246 142.301H423.952V181.944H418.119V142.301H403.856V137.476H438.246V142.301ZM470.905 162.123C465.875 160.677 462.21 158.906 459.91 156.809C457.629 154.691 456.489 152.085 456.489 148.99C456.489 145.488 457.884 142.596 460.673 140.316C463.483 138.015 467.128 136.865 471.607 136.865C474.661 136.865 477.379 137.455 479.762 138.636C482.164 139.817 484.017 141.446 485.32 143.523C486.644 145.6 487.306 147.87 487.306 150.334H481.411C481.411 147.646 480.556 145.539 478.845 144.012C477.135 142.464 474.722 141.69 471.607 141.69C468.716 141.69 466.456 142.332 464.827 143.614C463.218 144.877 462.414 146.638 462.414 148.898C462.414 150.71 463.178 152.248 464.705 153.51C466.252 154.752 468.868 155.892 472.554 156.931C476.26 157.969 479.151 159.12 481.228 160.382C483.325 161.624 484.872 163.08 485.87 164.749C486.888 166.419 487.397 168.384 487.397 170.644C487.397 174.248 485.992 177.139 483.182 179.318C480.373 181.476 476.616 182.555 471.912 182.555C468.858 182.555 466.008 181.975 463.361 180.814C460.714 179.633 458.668 178.025 457.222 175.989C455.797 173.953 455.084 171.642 455.084 169.056H460.979C460.979 171.743 461.966 173.871 463.941 175.439C465.936 176.986 468.594 177.76 471.912 177.76C475.007 177.76 477.379 177.129 479.029 175.867C480.678 174.604 481.503 172.884 481.503 170.705C481.503 168.526 480.739 166.847 479.212 165.666C477.685 164.464 474.916 163.283 470.905 162.123Z" fill="white"/>
</svg>
