<svg width="272" height="415" viewBox="0 0 272 415" fill="none" xmlns="http://www.w3.org/2000/svg">
<circle cx="93.5" cy="35.5" r="35.5" fill="#306CE0"/>
<circle cx="180.5" cy="35.5" r="35.5" fill="#306CE0"/>
<circle cx="136.5" cy="117.5" r="35.5" fill="#306CE0"/>
<circle cx="93.5" cy="199.5" r="35.5" fill="#306CE0"/>
<circle cx="180.5" cy="199.5" r="35.5" fill="#306CE0"/>
<circle cx="227.5" cy="117.5" r="35.5" fill="#306CE0"/>
<circle cx="45.5" cy="117.5" r="35.5" fill="#306CE0"/>
<path d="M65.6546 318.986C65.0701 327.066 62.0788 333.427 56.6806 338.069C51.3168 342.711 44.2339 345.031 35.4318 345.031C25.8045 345.031 18.2231 341.799 12.6874 335.335C7.18608 328.837 4.43542 319.932 4.43542 308.62V304.03C4.43542 296.809 5.7076 290.448 8.25195 284.947C10.7963 279.446 14.4237 275.234 19.1342 272.311C23.8791 269.354 29.3804 267.876 35.6381 267.876C44.3027 267.876 51.2824 270.197 56.5774 274.838C61.8725 279.48 64.9326 285.996 65.7577 294.385H50.2853C49.9071 289.537 48.549 286.03 46.2109 283.864C43.9073 281.663 40.383 280.563 35.6381 280.563C30.4806 280.563 26.6125 282.42 24.0338 286.133C21.4895 289.812 20.1829 295.537 20.1141 303.308V308.981C20.1141 317.095 21.3347 323.026 23.7759 326.774C26.2515 330.522 30.1368 332.396 35.4318 332.396C40.2111 332.396 43.7697 331.313 46.1078 329.146C48.4802 326.946 49.8384 323.559 50.1822 318.986H65.6546ZM137.498 308.156C137.498 315.548 136.192 322.029 133.578 327.599C130.965 333.169 127.218 337.467 122.335 340.493C117.487 343.519 111.917 345.031 105.625 345.031C99.4016 345.031 93.8488 343.536 88.9664 340.544C84.084 337.553 80.3018 333.29 77.6199 327.754C74.938 322.184 73.5799 315.789 73.5455 308.568V304.855C73.5455 297.462 74.8693 290.964 77.5168 285.36C80.1987 279.721 83.9636 275.406 88.8116 272.414C93.694 269.389 99.2641 267.876 105.522 267.876C111.78 267.876 117.332 269.389 122.18 272.414C127.063 275.406 130.828 279.721 133.475 285.36C136.157 290.964 137.498 297.445 137.498 304.803V308.156ZM121.819 304.752C121.819 296.878 120.41 290.895 117.59 286.804C114.771 282.712 110.748 280.666 105.522 280.666C100.33 280.666 96.3244 282.695 93.5049 286.752C90.6855 290.775 89.2586 296.689 89.2242 304.494V308.156C89.2242 315.823 90.6339 321.771 93.4534 326C96.2728 330.23 100.33 332.344 105.625 332.344C110.817 332.344 114.805 330.316 117.59 326.258C120.375 322.167 121.785 316.218 121.819 308.413V304.752ZM148.741 344V268.907H171.847C178.448 268.907 184.345 270.403 189.537 273.394C194.763 276.351 198.838 280.58 201.76 286.082C204.683 291.549 206.144 297.772 206.144 304.752V308.207C206.144 315.187 204.7 321.393 201.812 326.826C198.958 332.258 194.918 336.47 189.692 339.461C184.466 342.453 178.569 343.966 172.002 344H148.741ZM164.214 281.44V331.57H171.692C177.744 331.57 182.368 329.593 185.566 325.639C188.763 321.685 190.397 316.029 190.465 308.671V304.7C190.465 297.067 188.884 291.291 185.721 287.371C182.557 283.417 177.933 281.44 171.847 281.44H164.214ZM262.618 311.456H232.911V331.57H267.776V344H217.439V268.907H267.673V281.44H232.911V299.336H262.618V311.456Z" fill="black"/>
<path d="M21.8717 389.807V404.972H16.7633V366.234H31.0507C35.29 366.234 38.6068 367.316 41.0014 369.48C43.4137 371.644 44.6198 374.508 44.6198 378.074C44.6198 381.834 43.4403 384.734 41.0812 386.774C38.7399 388.796 35.3786 389.807 30.9975 389.807H21.8717ZM21.8717 385.63H31.0507C33.7823 385.63 35.8753 384.991 37.3297 383.714C38.7842 382.419 39.5114 380.557 39.5114 378.127C39.5114 375.821 38.7842 373.976 37.3297 372.593C35.8753 371.209 33.8798 370.491 31.3434 370.438H21.8717V385.63ZM92.6521 386.854C92.6521 390.649 92.0136 393.966 90.7365 396.804C89.4594 399.624 87.6502 401.78 85.3089 403.269C82.9675 404.759 80.236 405.504 77.1142 405.504C74.0634 405.504 71.3585 404.759 68.9994 403.269C66.6403 401.762 64.8045 399.624 63.492 396.857C62.1971 394.073 61.532 390.853 61.4965 387.199V384.406C61.4965 380.681 62.1439 377.391 63.4387 374.535C64.7336 371.679 66.5605 369.498 68.9196 367.99C71.2964 366.464 74.0102 365.702 77.061 365.702C80.165 365.702 82.8966 366.456 85.2557 367.963C87.6325 369.453 89.4594 371.626 90.7365 374.482C92.0136 377.32 92.6521 380.628 92.6521 384.406V386.854ZM87.5704 384.353C87.5704 379.759 86.648 376.238 84.8034 373.79C82.9587 371.325 80.3779 370.092 77.061 370.092C73.8328 370.092 71.2875 371.325 69.4251 373.79C67.5804 376.238 66.6315 379.643 66.5783 384.007V386.854C66.5783 391.306 67.5095 394.809 69.3719 397.363C71.252 399.899 73.8328 401.168 77.1142 401.168C80.4134 401.168 82.9675 399.97 84.7768 397.576C86.586 395.163 87.5172 391.714 87.5704 387.226V384.353ZM117.511 404.972H112.402V366.234H117.511V404.972ZM168.363 404.972H163.228L143.726 375.12V404.972H138.591V366.234H143.726L163.281 396.219V366.234H168.363V404.972ZM215.118 370.438H202.667V404.972H197.585V370.438H185.16V366.234H215.118V370.438ZM243.569 387.705C239.188 386.446 235.995 384.902 233.991 383.075C232.004 381.231 231.011 378.96 231.011 376.264C231.011 373.214 232.226 370.695 234.656 368.708C237.104 366.704 240.279 365.702 244.181 365.702C246.841 365.702 249.209 366.216 251.285 367.245C253.378 368.274 254.992 369.693 256.127 371.502C257.28 373.311 257.856 375.289 257.856 377.435H252.721C252.721 375.094 251.976 373.258 250.486 371.928C248.996 370.58 246.895 369.906 244.181 369.906C241.662 369.906 239.693 370.464 238.274 371.582C236.873 372.681 236.172 374.216 236.172 376.185C236.172 377.763 236.837 379.102 238.168 380.202C239.516 381.284 241.795 382.277 245.006 383.182C248.234 384.087 250.752 385.089 252.562 386.188C254.389 387.27 255.737 388.539 256.606 389.993C257.493 391.448 257.936 393.159 257.936 395.128C257.936 398.268 256.712 400.786 254.264 402.684C251.817 404.564 248.544 405.504 244.447 405.504C241.786 405.504 239.303 404.999 236.997 403.988C234.691 402.959 232.909 401.558 231.649 399.784C230.408 398.01 229.787 395.997 229.787 393.744H234.922C234.922 396.086 235.782 397.939 237.503 399.305C239.241 400.653 241.556 401.327 244.447 401.327C247.143 401.327 249.209 400.777 250.646 399.678C252.083 398.578 252.801 397.079 252.801 395.181C252.801 393.283 252.136 391.82 250.806 390.791C249.475 389.745 247.063 388.716 243.569 387.705Z" fill="black"/>
</svg>
