<svg width="168" height="257" viewBox="0 0 168 257" fill="none" xmlns="http://www.w3.org/2000/svg">
<circle cx="57.9025" cy="21.9843" r="21.9843" fill="#306CE0"/>
<circle cx="111.78" cy="21.9843" r="21.9843" fill="#306CE0"/>
<circle cx="84.5315" cy="72.765" r="21.9843" fill="#306CE0"/>
<circle cx="57.9025" cy="123.546" r="21.9843" fill="#306CE0"/>
<circle cx="111.78" cy="123.546" r="21.9843" fill="#306CE0"/>
<circle cx="140.886" cy="72.765" r="21.9843" fill="#306CE0"/>
<circle cx="28.1772" cy="72.765" r="21.9843" fill="#306CE0"/>
<path d="M40.6584 197.852C40.2964 202.856 38.4439 206.795 35.101 209.669C31.7793 212.544 27.393 213.981 21.9421 213.981C15.9802 213.981 11.2851 211.979 7.857 207.976C4.45017 203.952 2.74676 198.437 2.74676 191.432V188.589C2.74676 184.118 3.53459 180.179 5.11025 176.772C6.6859 173.365 8.93228 170.757 11.8494 168.947C14.7878 167.116 18.1946 166.2 22.0699 166.2C27.4356 166.2 31.758 167.637 35.0371 170.512C38.3162 173.386 40.2112 177.421 40.7223 182.617H31.1406C30.9063 179.615 30.0653 177.443 28.6174 176.101C27.1908 174.739 25.0083 174.057 22.0699 174.057C18.876 174.057 16.4805 175.207 14.8836 177.507C13.3079 179.785 12.4988 183.33 12.4562 188.142V191.656C12.4562 196.681 13.2121 200.354 14.7239 202.675C16.257 204.995 18.663 206.156 21.9421 206.156C24.9018 206.156 27.1056 205.485 28.5535 204.144C30.0227 202.781 30.8638 200.684 31.0767 197.852H40.6584ZM85.1495 191.145C85.1495 195.722 84.3403 199.736 82.7221 203.186C81.1039 206.635 78.7829 209.297 75.7594 211.17C72.7571 213.044 69.3077 213.981 65.4111 213.981C61.5572 213.981 58.1184 213.055 55.0948 211.202C52.0713 209.35 49.7291 206.709 48.0682 203.281C46.4074 199.832 45.5664 195.872 45.5451 191.4V189.1C45.5451 184.523 46.3648 180.498 48.0044 177.027C49.6652 173.535 51.9967 170.863 54.999 169.011C58.0226 167.137 61.472 166.2 65.3473 166.2C69.2225 166.2 72.6613 167.137 75.6636 169.011C78.6871 170.863 81.0187 173.535 82.6582 177.027C84.319 180.498 85.1495 184.512 85.1495 189.068V191.145ZM75.44 189.037C75.44 184.161 74.567 180.456 72.821 177.922C71.075 175.388 68.5838 174.121 65.3473 174.121C62.1321 174.121 59.6515 175.377 57.9055 177.89C56.1595 180.381 55.2758 184.043 55.2545 188.877V191.145C55.2545 195.893 56.1275 199.576 57.8735 202.195C59.6195 204.814 62.1321 206.124 65.4111 206.124C68.6263 206.124 71.0963 204.868 72.821 202.355C74.5457 199.821 75.4187 196.138 75.44 191.304V189.037ZM92.1122 213.342V166.839H106.421C110.509 166.839 114.161 167.765 117.376 169.618C120.612 171.449 123.136 174.068 124.945 177.475C126.755 180.86 127.66 184.714 127.66 189.037V191.176C127.66 195.499 126.766 199.342 124.977 202.706C123.21 206.071 120.708 208.679 117.472 210.532C114.235 212.384 110.584 213.321 106.517 213.342H92.1122ZM101.694 174.6V205.645H106.325C110.073 205.645 112.936 204.421 114.917 201.972C116.897 199.523 117.908 196.021 117.951 191.464V189.005C117.951 184.278 116.971 180.7 115.012 178.273C113.054 175.824 110.19 174.6 106.421 174.6H101.694ZM162.634 193.189H144.237V205.645H165.827V213.342H134.655V166.839H165.764V174.6H144.237V185.683H162.634V193.189Z" fill="black"/>
<path d="M13.5448 241.815V251.207H10.3813V227.217H19.2291C21.8544 227.217 23.9085 227.887 25.3913 229.227C26.8852 230.567 27.6321 232.341 27.6321 234.549C27.6321 236.878 26.9017 238.674 25.4408 239.937C23.9908 241.189 21.9093 241.815 19.1962 241.815H13.5448ZM13.5448 239.228H19.2291C20.9207 239.228 22.2169 238.833 23.1176 238.042C24.0183 237.24 24.4687 236.087 24.4687 234.582C24.4687 233.154 24.0183 232.012 23.1176 231.155C22.2169 230.298 20.9811 229.853 19.4104 229.82H13.5448V239.228ZM57.3775 239.986C57.3775 242.337 56.982 244.391 56.1912 246.149C55.4003 247.895 54.2799 249.23 52.83 250.152C51.38 251.075 49.6884 251.536 47.7552 251.536C45.8659 251.536 44.1908 251.075 42.7299 250.152C41.269 249.219 40.1321 247.895 39.3192 246.181C38.5174 244.457 38.1055 242.463 38.0835 240.2V238.47C38.0835 236.164 38.4844 234.126 39.2863 232.358C40.0881 230.589 41.2195 229.238 42.6804 228.304C44.1523 227.36 45.8329 226.887 47.7223 226.887C49.6445 226.887 51.3361 227.354 52.797 228.288C54.2689 229.211 55.4003 230.556 56.1912 232.325C56.982 234.082 57.3775 236.131 57.3775 238.47V239.986ZM54.2305 238.438C54.2305 235.593 53.6593 233.412 52.5169 231.896C51.3745 230.37 49.7763 229.606 47.7223 229.606C45.7231 229.606 44.1469 230.37 42.9935 231.896C41.8511 233.412 41.2635 235.521 41.2305 238.223V239.986C41.2305 242.743 41.8072 244.913 42.9605 246.495C44.1249 248.065 45.7231 248.851 47.7552 248.851C49.7983 248.851 51.38 248.109 52.5004 246.626C53.6208 245.132 54.1975 242.996 54.2305 240.217V238.438ZM72.7718 251.207H69.6083V227.217H72.7718V251.207ZM104.264 251.207H101.084L89.0064 232.72V251.207H85.8264V227.217H89.0064L101.117 245.786V227.217H104.264V251.207ZM133.218 229.82H125.507V251.207H122.36V229.82H114.666V227.217H133.218V229.82ZM150.837 240.514C148.124 239.734 146.146 238.778 144.905 237.647C143.675 236.504 143.06 235.098 143.06 233.429C143.06 231.539 143.812 229.98 145.317 228.749C146.833 227.508 148.799 226.887 151.216 226.887C152.863 226.887 154.33 227.206 155.615 227.843C156.911 228.48 157.911 229.359 158.614 230.479C159.328 231.6 159.685 232.825 159.685 234.154H156.505C156.505 232.704 156.043 231.567 155.121 230.743C154.198 229.908 152.896 229.491 151.216 229.491C149.656 229.491 148.437 229.837 147.558 230.529C146.69 231.21 146.256 232.16 146.256 233.379C146.256 234.357 146.668 235.186 147.492 235.867C148.327 236.537 149.738 237.152 151.726 237.713C153.726 238.273 155.285 238.893 156.406 239.574C157.537 240.244 158.372 241.03 158.91 241.931C159.459 242.831 159.734 243.891 159.734 245.11C159.734 247.055 158.976 248.614 157.46 249.79C155.944 250.954 153.918 251.536 151.38 251.536C149.733 251.536 148.195 251.223 146.767 250.597C145.339 249.96 144.235 249.092 143.455 247.994C142.686 246.895 142.302 245.649 142.302 244.254H145.482C145.482 245.704 146.015 246.852 147.08 247.697C148.157 248.532 149.59 248.95 151.38 248.95C153.05 248.95 154.33 248.609 155.219 247.928C156.109 247.247 156.554 246.319 156.554 245.143C156.554 243.968 156.142 243.062 155.318 242.425C154.494 241.777 153.001 241.14 150.837 240.514Z" fill="black"/>
</svg>
